<mxfile host="www.draw.io" modified="2020-01-27T23:13:18.772Z" agent="Mozilla/5.0 (Windows NT 10.0; Win64; x64) AppleWebKit/537.36 (KHTML, like Gecko) Chrome/79.0.3945.130 Safari/537.36" etag="kTBqt1N0_EWabtid4tOj" version="12.5.8" type="github">
  <diagram name="Page-1" id="b5b7bab2-c9e2-2cf4-8b2a-24fd1a2a6d21">
    <mxGraphModel dx="2076" dy="2265" grid="1" gridSize="10" guides="1" tooltips="1" connect="1" arrows="1" fold="1" page="1" pageScale="1" pageWidth="827" pageHeight="1169" background="#ffffff" math="0" shadow="0">
      <root>
        <mxCell id="0"/>
        <mxCell id="1" parent="0"/>
        <mxCell id="tYp6Sg9qTfao6b7lQUXx-10" value="" style="group" parent="1" vertex="1" connectable="0">
          <mxGeometry x="760" y="-250" width="590" height="430" as="geometry"/>
        </mxCell>
        <mxCell id="tYp6Sg9qTfao6b7lQUXx-4" value="" style="shape=folder;fontStyle=1;spacingTop=10;tabWidth=159;tabHeight=30;tabPosition=left;html=1;" parent="tYp6Sg9qTfao6b7lQUXx-10" vertex="1">
          <mxGeometry width="590" height="430" as="geometry"/>
        </mxCell>
        <mxCell id="tYp6Sg9qTfao6b7lQUXx-9" value="UI Interfaces" style="text;align=center;fontStyle=1;verticalAlign=middle;spacingLeft=3;spacingRight=3;strokeColor=none;rotatable=0;points=[[0,0.5],[1,0.5]];portConstraint=eastwest;" parent="tYp6Sg9qTfao6b7lQUXx-10" vertex="1">
          <mxGeometry width="160" height="30" as="geometry"/>
        </mxCell>
        <mxCell id="tYp6Sg9qTfao6b7lQUXx-32" value="Signup UI" style="swimlane;fontStyle=0;childLayout=stackLayout;horizontal=1;startSize=26;fillColor=none;horizontalStack=0;resizeParent=1;resizeParentMax=0;resizeLast=0;collapsible=1;marginBottom=0;" parent="tYp6Sg9qTfao6b7lQUXx-10" vertex="1">
          <mxGeometry x="27.44" y="62.12121212121211" width="102.56" height="99.39393939393938" as="geometry">
            <mxRectangle x="20" y="50" width="90" height="26" as="alternateBounds"/>
          </mxGeometry>
        </mxCell>
        <mxCell id="tYp6Sg9qTfao6b7lQUXx-38" value="Login UI" style="swimlane;fontStyle=0;childLayout=stackLayout;horizontal=1;startSize=26;fillColor=none;horizontalStack=0;resizeParent=1;resizeParentMax=0;resizeLast=0;collapsible=1;marginBottom=0;" parent="tYp6Sg9qTfao6b7lQUXx-10" vertex="1">
          <mxGeometry x="170" y="62.12121212121211" width="100" height="99.39393939393938" as="geometry">
            <mxRectangle x="20" y="50" width="90" height="26" as="alternateBounds"/>
          </mxGeometry>
        </mxCell>
        <mxCell id="tYp6Sg9qTfao6b7lQUXx-39" value="Profile UI" style="swimlane;fontStyle=0;childLayout=stackLayout;horizontal=1;startSize=26;fillColor=none;horizontalStack=0;resizeParent=1;resizeParentMax=0;resizeLast=0;collapsible=1;marginBottom=0;" parent="tYp6Sg9qTfao6b7lQUXx-10" vertex="1">
          <mxGeometry x="460" y="62.12121212121211" width="102.56" height="99.39393939393938" as="geometry">
            <mxRectangle x="20" y="50" width="90" height="26" as="alternateBounds"/>
          </mxGeometry>
        </mxCell>
        <mxCell id="tYp6Sg9qTfao6b7lQUXx-40" value="Support UI" style="swimlane;fontStyle=0;childLayout=stackLayout;horizontal=1;startSize=26;fillColor=none;horizontalStack=0;resizeParent=1;resizeParentMax=0;resizeLast=0;collapsible=1;marginBottom=0;" parent="tYp6Sg9qTfao6b7lQUXx-10" vertex="1">
          <mxGeometry x="320" y="62.12121212121211" width="100" height="99.39393939393938" as="geometry">
            <mxRectangle x="20" y="50" width="90" height="26" as="alternateBounds"/>
          </mxGeometry>
        </mxCell>
        <mxCell id="tYp6Sg9qTfao6b7lQUXx-42" value="Search UI" style="swimlane;fontStyle=0;childLayout=stackLayout;horizontal=1;startSize=26;fillColor=none;horizontalStack=0;resizeParent=1;resizeParentMax=0;resizeLast=0;collapsible=1;marginBottom=0;" parent="tYp6Sg9qTfao6b7lQUXx-10" vertex="1">
          <mxGeometry x="27.440000000000012" y="190.00212121212118" width="102.56" height="99.39393939393938" as="geometry">
            <mxRectangle x="20" y="50" width="90" height="26" as="alternateBounds"/>
          </mxGeometry>
        </mxCell>
        <mxCell id="tYp6Sg9qTfao6b7lQUXx-43" value="Packages UI" style="swimlane;fontStyle=0;childLayout=stackLayout;horizontal=1;startSize=26;fillColor=none;horizontalStack=0;resizeParent=1;resizeParentMax=0;resizeLast=0;collapsible=1;marginBottom=0;" parent="tYp6Sg9qTfao6b7lQUXx-10" vertex="1">
          <mxGeometry x="170" y="190.00212121212118" width="102.56" height="99.39393939393938" as="geometry">
            <mxRectangle x="20" y="50" width="90" height="26" as="alternateBounds"/>
          </mxGeometry>
        </mxCell>
        <mxCell id="tYp6Sg9qTfao6b7lQUXx-50" value="Contract UI" style="swimlane;fontStyle=0;childLayout=stackLayout;horizontal=1;startSize=26;fillColor=none;horizontalStack=0;resizeParent=1;resizeParentMax=0;resizeLast=0;collapsible=1;marginBottom=0;" parent="tYp6Sg9qTfao6b7lQUXx-10" vertex="1">
          <mxGeometry x="317.44000000000005" y="190.00212121212118" width="102.56" height="99.39393939393938" as="geometry">
            <mxRectangle x="20" y="50" width="90" height="26" as="alternateBounds"/>
          </mxGeometry>
        </mxCell>
        <mxCell id="tYp6Sg9qTfao6b7lQUXx-52" value="Sport History UI" style="swimlane;fontStyle=0;childLayout=stackLayout;horizontal=1;startSize=26;fillColor=none;horizontalStack=0;resizeParent=1;resizeParentMax=0;resizeLast=0;collapsible=1;marginBottom=0;" parent="tYp6Sg9qTfao6b7lQUXx-10" vertex="1">
          <mxGeometry x="460" y="190.00212121212118" width="102.56" height="99.39393939393938" as="geometry">
            <mxRectangle x="20" y="50" width="90" height="26" as="alternateBounds"/>
          </mxGeometry>
        </mxCell>
        <mxCell id="LJv96EUOWv_tqTswNUqL-1" value="Program UI" style="swimlane;fontStyle=0;childLayout=stackLayout;horizontal=1;startSize=26;fillColor=none;horizontalStack=0;resizeParent=1;resizeParentMax=0;resizeLast=0;collapsible=1;marginBottom=0;" vertex="1" parent="tYp6Sg9qTfao6b7lQUXx-10">
          <mxGeometry x="27.44" y="310.0021212121212" width="102.56" height="99.39393939393938" as="geometry">
            <mxRectangle x="20" y="50" width="90" height="26" as="alternateBounds"/>
          </mxGeometry>
        </mxCell>
        <mxCell id="LJv96EUOWv_tqTswNUqL-2" value="Chat UI" style="swimlane;fontStyle=0;childLayout=stackLayout;horizontal=1;startSize=26;fillColor=none;horizontalStack=0;resizeParent=1;resizeParentMax=0;resizeLast=0;collapsible=1;marginBottom=0;" vertex="1" parent="tYp6Sg9qTfao6b7lQUXx-10">
          <mxGeometry x="170.00000000000006" y="310.0021212121212" width="102.56" height="99.39393939393938" as="geometry">
            <mxRectangle x="20" y="50" width="90" height="26" as="alternateBounds"/>
          </mxGeometry>
        </mxCell>
        <mxCell id="tYp6Sg9qTfao6b7lQUXx-46" value="" style="group" parent="1" vertex="1" connectable="0">
          <mxGeometry x="1530" y="-220" width="460" height="330" as="geometry"/>
        </mxCell>
        <mxCell id="tYp6Sg9qTfao6b7lQUXx-5" value="" style="shape=folder;fontStyle=1;spacingTop=10;tabWidth=226;tabHeight=33;tabPosition=left;html=1;" parent="tYp6Sg9qTfao6b7lQUXx-46" vertex="1">
          <mxGeometry width="459.99999999999994" height="330" as="geometry"/>
        </mxCell>
        <mxCell id="tYp6Sg9qTfao6b7lQUXx-45" value="Presentation Logic" style="text;align=center;fontStyle=1;verticalAlign=middle;spacingLeft=3;spacingRight=3;strokeColor=none;rotatable=0;points=[[0,0.5],[1,0.5]];portConstraint=eastwest;" parent="tYp6Sg9qTfao6b7lQUXx-46" vertex="1">
          <mxGeometry width="220" height="30" as="geometry"/>
        </mxCell>
        <mxCell id="tYp6Sg9qTfao6b7lQUXx-53" value="Navigation" style="swimlane;fontStyle=0;childLayout=stackLayout;horizontal=1;startSize=26;fillColor=none;horizontalStack=0;resizeParent=1;resizeParentMax=0;resizeLast=0;collapsible=1;marginBottom=0;" parent="tYp6Sg9qTfao6b7lQUXx-46" vertex="1">
          <mxGeometry x="40" y="70" width="160" height="150" as="geometry">
            <mxRectangle x="20" y="50" width="90" height="26" as="alternateBounds"/>
          </mxGeometry>
        </mxCell>
        <mxCell id="tYp6Sg9qTfao6b7lQUXx-54" value="Validation" style="swimlane;fontStyle=0;childLayout=stackLayout;horizontal=1;startSize=26;fillColor=none;horizontalStack=0;resizeParent=1;resizeParentMax=0;resizeLast=0;collapsible=1;marginBottom=0;" parent="tYp6Sg9qTfao6b7lQUXx-46" vertex="1">
          <mxGeometry x="260" y="70" width="160" height="150" as="geometry">
            <mxRectangle x="20" y="50" width="90" height="26" as="alternateBounds"/>
          </mxGeometry>
        </mxCell>
        <mxCell id="tYp6Sg9qTfao6b7lQUXx-49" style="edgeStyle=orthogonalEdgeStyle;rounded=0;orthogonalLoop=1;jettySize=auto;html=1;exitX=0;exitY=0;exitDx=0;exitDy=181.5;exitPerimeter=0;entryX=1.002;entryY=0.371;entryDx=0;entryDy=0;entryPerimeter=0;dashed=1;endArrow=open;endFill=0;endSize=10;strokeWidth=2;" parent="1" source="tYp6Sg9qTfao6b7lQUXx-5" target="tYp6Sg9qTfao6b7lQUXx-4" edge="1">
          <mxGeometry relative="1" as="geometry"/>
        </mxCell>
        <mxCell id="tYp6Sg9qTfao6b7lQUXx-55" value="" style="shape=folder;fontStyle=1;spacingTop=10;tabWidth=220;tabHeight=64;tabPosition=left;html=1;rounded=0;shadow=0;comic=0;labelBackgroundColor=none;strokeWidth=1;fillColor=none;fontFamily=Verdana;fontSize=10;align=center;" parent="1" vertex="1">
          <mxGeometry x="30" y="600" width="2130" height="1530" as="geometry"/>
        </mxCell>
        <mxCell id="tYp6Sg9qTfao6b7lQUXx-57" value="Problem Domain Layer" style="text;align=center;fontStyle=1;verticalAlign=middle;spacingLeft=3;spacingRight=3;strokeColor=none;rotatable=0;points=[[0,0.5],[1,0.5]];portConstraint=eastwest;fontSize=18;" parent="1" vertex="1">
          <mxGeometry x="30" y="600" width="220" height="60" as="geometry"/>
        </mxCell>
        <mxCell id="6e0c8c40b5770093-72" value="" style="shape=folder;fontStyle=1;spacingTop=10;tabWidth=204;tabHeight=41;tabPosition=left;html=1;rounded=0;shadow=0;comic=0;labelBackgroundColor=none;strokeWidth=1;fillColor=none;fontFamily=Verdana;fontSize=10;align=center;" parent="1" vertex="1">
          <mxGeometry x="720" y="-310" width="1310" height="530" as="geometry"/>
        </mxCell>
        <mxCell id="6e0c8c40b5770093-73" value="&lt;b&gt;&lt;font style=&quot;font-size: 15px&quot;&gt;HCI Layer&lt;/font&gt;&lt;/b&gt;" style="text;html=1;align=center;verticalAlign=top;spacingTop=-4;fontSize=10;fontFamily=Verdana" parent="1" vertex="1">
          <mxGeometry x="720" y="-300.6666666666667" width="200" height="28.000000000000007" as="geometry"/>
        </mxCell>
        <mxCell id="LJv96EUOWv_tqTswNUqL-40" value="" style="shape=folder;fontStyle=1;spacingTop=10;tabWidth=149;tabHeight=37;tabPosition=left;html=1;fontSize=18;" vertex="1" parent="1">
          <mxGeometry x="90" y="740" width="580" height="660" as="geometry"/>
        </mxCell>
        <mxCell id="LJv96EUOWv_tqTswNUqL-41" value="User" style="text;align=center;fontStyle=1;verticalAlign=middle;spacingLeft=3;spacingRight=3;strokeColor=none;rotatable=0;points=[[0,0.5],[1,0.5]];portConstraint=eastwest;fontSize=18;" vertex="1" parent="1">
          <mxGeometry x="90" y="740" width="150" height="40" as="geometry"/>
        </mxCell>
        <mxCell id="LJv96EUOWv_tqTswNUqL-42" value="Athlete" style="swimlane;html=1;fontStyle=1;align=center;verticalAlign=top;childLayout=stackLayout;horizontal=1;startSize=26;horizontalStack=0;resizeParent=1;resizeLast=0;collapsible=1;marginBottom=0;swimlaneFillColor=#ffffff;rounded=0;shadow=0;comic=0;labelBackgroundColor=none;strokeWidth=1;fillColor=none;fontFamily=Verdana;fontSize=12" vertex="1" parent="1">
          <mxGeometry x="130" y="820" width="160" height="450" as="geometry"/>
        </mxCell>
        <mxCell id="LJv96EUOWv_tqTswNUqL-43" value="+ field: unique Athlete ID" style="text;html=1;strokeColor=none;fillColor=none;align=left;verticalAlign=top;spacingLeft=4;spacingRight=4;whiteSpace=wrap;overflow=hidden;rotatable=0;points=[[0,0.5],[1,0.5]];portConstraint=eastwest;" vertex="1" parent="LJv96EUOWv_tqTswNUqL-42">
          <mxGeometry y="26" width="160" height="26" as="geometry"/>
        </mxCell>
        <mxCell id="LJv96EUOWv_tqTswNUqL-44" value="- first_name" style="text;html=1;strokeColor=none;fillColor=none;align=left;verticalAlign=top;spacingLeft=4;spacingRight=4;whiteSpace=wrap;overflow=hidden;rotatable=0;points=[[0,0.5],[1,0.5]];portConstraint=eastwest;" vertex="1" parent="LJv96EUOWv_tqTswNUqL-42">
          <mxGeometry y="52" width="160" height="26" as="geometry"/>
        </mxCell>
        <mxCell id="LJv96EUOWv_tqTswNUqL-45" value="- last_name" style="text;html=1;strokeColor=none;fillColor=none;align=left;verticalAlign=top;spacingLeft=4;spacingRight=4;whiteSpace=wrap;overflow=hidden;rotatable=0;points=[[0,0.5],[1,0.5]];portConstraint=eastwest;" vertex="1" parent="LJv96EUOWv_tqTswNUqL-42">
          <mxGeometry y="78" width="160" height="26" as="geometry"/>
        </mxCell>
        <mxCell id="LJv96EUOWv_tqTswNUqL-46" value="- username" style="text;html=1;strokeColor=none;fillColor=none;align=left;verticalAlign=top;spacingLeft=4;spacingRight=4;whiteSpace=wrap;overflow=hidden;rotatable=0;points=[[0,0.5],[1,0.5]];portConstraint=eastwest;" vertex="1" parent="LJv96EUOWv_tqTswNUqL-42">
          <mxGeometry y="104" width="160" height="26" as="geometry"/>
        </mxCell>
        <mxCell id="LJv96EUOWv_tqTswNUqL-47" value="- password" style="text;html=1;strokeColor=none;fillColor=none;align=left;verticalAlign=top;spacingLeft=4;spacingRight=4;whiteSpace=wrap;overflow=hidden;rotatable=0;points=[[0,0.5],[1,0.5]];portConstraint=eastwest;" vertex="1" parent="LJv96EUOWv_tqTswNUqL-42">
          <mxGeometry y="130" width="160" height="26" as="geometry"/>
        </mxCell>
        <mxCell id="LJv96EUOWv_tqTswNUqL-48" value="- City Name" style="text;html=1;strokeColor=none;fillColor=none;align=left;verticalAlign=top;spacingLeft=4;spacingRight=4;whiteSpace=wrap;overflow=hidden;rotatable=0;points=[[0,0.5],[1,0.5]];portConstraint=eastwest;" vertex="1" parent="LJv96EUOWv_tqTswNUqL-42">
          <mxGeometry y="156" width="160" height="26" as="geometry"/>
        </mxCell>
        <mxCell id="LJv96EUOWv_tqTswNUqL-49" value="- Province Name" style="text;html=1;strokeColor=none;fillColor=none;align=left;verticalAlign=top;spacingLeft=4;spacingRight=4;whiteSpace=wrap;overflow=hidden;rotatable=0;points=[[0,0.5],[1,0.5]];portConstraint=eastwest;" vertex="1" parent="LJv96EUOWv_tqTswNUqL-42">
          <mxGeometry y="182" width="160" height="26" as="geometry"/>
        </mxCell>
        <mxCell id="LJv96EUOWv_tqTswNUqL-50" value="- Country Name" style="text;html=1;strokeColor=none;fillColor=none;align=left;verticalAlign=top;spacingLeft=4;spacingRight=4;whiteSpace=wrap;overflow=hidden;rotatable=0;points=[[0,0.5],[1,0.5]];portConstraint=eastwest;" vertex="1" parent="LJv96EUOWv_tqTswNUqL-42">
          <mxGeometry y="208" width="160" height="26" as="geometry"/>
        </mxCell>
        <mxCell id="LJv96EUOWv_tqTswNUqL-51" value="" style="line;html=1;strokeWidth=1;fillColor=none;align=left;verticalAlign=middle;spacingTop=-1;spacingLeft=3;spacingRight=3;rotatable=0;labelPosition=right;points=[];portConstraint=eastwest;" vertex="1" parent="LJv96EUOWv_tqTswNUqL-42">
          <mxGeometry y="234" width="160" height="8" as="geometry"/>
        </mxCell>
        <mxCell id="LJv96EUOWv_tqTswNUqL-52" value="+ getWorkoutPrograms()" style="text;html=1;strokeColor=none;fillColor=none;align=left;verticalAlign=top;spacingLeft=4;spacingRight=4;whiteSpace=wrap;overflow=hidden;rotatable=0;points=[[0,0.5],[1,0.5]];portConstraint=eastwest;" vertex="1" parent="LJv96EUOWv_tqTswNUqL-42">
          <mxGeometry y="242" width="160" height="26" as="geometry"/>
        </mxCell>
        <mxCell id="LJv96EUOWv_tqTswNUqL-53" value="+ getNutritionPrograms()" style="text;html=1;strokeColor=none;fillColor=none;align=left;verticalAlign=top;spacingLeft=4;spacingRight=4;whiteSpace=wrap;overflow=hidden;rotatable=0;points=[[0,0.5],[1,0.5]];portConstraint=eastwest;" vertex="1" parent="LJv96EUOWv_tqTswNUqL-42">
          <mxGeometry y="268" width="160" height="26" as="geometry"/>
        </mxCell>
        <mxCell id="LJv96EUOWv_tqTswNUqL-54" value="+ SeeOwnProfile" style="text;html=1;strokeColor=none;fillColor=none;align=left;verticalAlign=top;spacingLeft=4;spacingRight=4;whiteSpace=wrap;overflow=hidden;rotatable=0;points=[[0,0.5],[1,0.5]];portConstraint=eastwest;" vertex="1" parent="LJv96EUOWv_tqTswNUqL-42">
          <mxGeometry y="294" width="160" height="26" as="geometry"/>
        </mxCell>
        <mxCell id="LJv96EUOWv_tqTswNUqL-55" value="+ EditProfile(Data)" style="text;html=1;strokeColor=none;fillColor=none;align=left;verticalAlign=top;spacingLeft=4;spacingRight=4;whiteSpace=wrap;overflow=hidden;rotatable=0;points=[[0,0.5],[1,0.5]];portConstraint=eastwest;" vertex="1" parent="LJv96EUOWv_tqTswNUqL-42">
          <mxGeometry y="320" width="160" height="26" as="geometry"/>
        </mxCell>
        <mxCell id="LJv96EUOWv_tqTswNUqL-56" value="+ getPackages()" style="text;html=1;strokeColor=none;fillColor=none;align=left;verticalAlign=top;spacingLeft=4;spacingRight=4;whiteSpace=wrap;overflow=hidden;rotatable=0;points=[[0,0.5],[1,0.5]];portConstraint=eastwest;" vertex="1" parent="LJv96EUOWv_tqTswNUqL-42">
          <mxGeometry y="346" width="160" height="26" as="geometry"/>
        </mxCell>
        <mxCell id="LJv96EUOWv_tqTswNUqL-57" value="getOwnCoaches()" style="text;html=1;strokeColor=none;fillColor=none;align=left;verticalAlign=top;spacingLeft=4;spacingRight=4;whiteSpace=wrap;overflow=hidden;rotatable=0;points=[[0,0.5],[1,0.5]];portConstraint=eastwest;" vertex="1" parent="LJv96EUOWv_tqTswNUqL-42">
          <mxGeometry y="372" width="160" height="26" as="geometry"/>
        </mxCell>
        <mxCell id="LJv96EUOWv_tqTswNUqL-58" value="SearchCoach()" style="text;html=1;strokeColor=none;fillColor=none;align=left;verticalAlign=top;spacingLeft=4;spacingRight=4;whiteSpace=wrap;overflow=hidden;rotatable=0;points=[[0,0.5],[1,0.5]];portConstraint=eastwest;" vertex="1" parent="LJv96EUOWv_tqTswNUqL-42">
          <mxGeometry y="398" width="160" height="26" as="geometry"/>
        </mxCell>
        <mxCell id="LJv96EUOWv_tqTswNUqL-59" value="SelectCoach(CoachID)" style="text;html=1;strokeColor=none;fillColor=none;align=left;verticalAlign=top;spacingLeft=4;spacingRight=4;whiteSpace=wrap;overflow=hidden;rotatable=0;points=[[0,0.5],[1,0.5]];portConstraint=eastwest;" vertex="1" parent="LJv96EUOWv_tqTswNUqL-42">
          <mxGeometry y="424" width="160" height="26" as="geometry"/>
        </mxCell>
        <mxCell id="LJv96EUOWv_tqTswNUqL-60" value="Coach" style="swimlane;html=1;fontStyle=1;align=center;verticalAlign=top;childLayout=stackLayout;horizontal=1;startSize=26;horizontalStack=0;resizeParent=1;resizeLast=0;collapsible=1;marginBottom=0;swimlaneFillColor=#ffffff;rounded=0;shadow=0;comic=0;labelBackgroundColor=none;strokeWidth=1;fillColor=none;fontFamily=Verdana;fontSize=12" vertex="1" parent="1">
          <mxGeometry x="410" y="820" width="155" height="446" as="geometry"/>
        </mxCell>
        <mxCell id="LJv96EUOWv_tqTswNUqL-61" value="- unique Coach ID" style="text;html=1;strokeColor=none;fillColor=none;align=left;verticalAlign=top;spacingLeft=4;spacingRight=4;whiteSpace=wrap;overflow=hidden;rotatable=0;points=[[0,0.5],[1,0.5]];portConstraint=eastwest;" vertex="1" parent="LJv96EUOWv_tqTswNUqL-60">
          <mxGeometry y="26" width="155" height="26" as="geometry"/>
        </mxCell>
        <mxCell id="LJv96EUOWv_tqTswNUqL-62" value="- first_name" style="text;html=1;strokeColor=none;fillColor=none;align=left;verticalAlign=top;spacingLeft=4;spacingRight=4;whiteSpace=wrap;overflow=hidden;rotatable=0;points=[[0,0.5],[1,0.5]];portConstraint=eastwest;" vertex="1" parent="LJv96EUOWv_tqTswNUqL-60">
          <mxGeometry y="52" width="155" height="26" as="geometry"/>
        </mxCell>
        <mxCell id="LJv96EUOWv_tqTswNUqL-63" value="- last_name" style="text;html=1;strokeColor=none;fillColor=none;align=left;verticalAlign=top;spacingLeft=4;spacingRight=4;whiteSpace=wrap;overflow=hidden;rotatable=0;points=[[0,0.5],[1,0.5]];portConstraint=eastwest;" vertex="1" parent="LJv96EUOWv_tqTswNUqL-60">
          <mxGeometry y="78" width="155" height="26" as="geometry"/>
        </mxCell>
        <mxCell id="LJv96EUOWv_tqTswNUqL-64" value="- nat_code" style="text;html=1;strokeColor=none;fillColor=none;align=left;verticalAlign=top;spacingLeft=4;spacingRight=4;whiteSpace=wrap;overflow=hidden;rotatable=0;points=[[0,0.5],[1,0.5]];portConstraint=eastwest;" vertex="1" parent="LJv96EUOWv_tqTswNUqL-60">
          <mxGeometry y="104" width="155" height="26" as="geometry"/>
        </mxCell>
        <mxCell id="LJv96EUOWv_tqTswNUqL-65" value="- username" style="text;html=1;strokeColor=none;fillColor=none;align=left;verticalAlign=top;spacingLeft=4;spacingRight=4;whiteSpace=wrap;overflow=hidden;rotatable=0;points=[[0,0.5],[1,0.5]];portConstraint=eastwest;" vertex="1" parent="LJv96EUOWv_tqTswNUqL-60">
          <mxGeometry y="130" width="155" height="26" as="geometry"/>
        </mxCell>
        <mxCell id="LJv96EUOWv_tqTswNUqL-66" value="- password" style="text;html=1;strokeColor=none;fillColor=none;align=left;verticalAlign=top;spacingLeft=4;spacingRight=4;whiteSpace=wrap;overflow=hidden;rotatable=0;points=[[0,0.5],[1,0.5]];portConstraint=eastwest;" vertex="1" parent="LJv96EUOWv_tqTswNUqL-60">
          <mxGeometry y="156" width="155" height="26" as="geometry"/>
        </mxCell>
        <mxCell id="LJv96EUOWv_tqTswNUqL-67" value="- City Name" style="text;html=1;strokeColor=none;fillColor=none;align=left;verticalAlign=top;spacingLeft=4;spacingRight=4;whiteSpace=wrap;overflow=hidden;rotatable=0;points=[[0,0.5],[1,0.5]];portConstraint=eastwest;" vertex="1" parent="LJv96EUOWv_tqTswNUqL-60">
          <mxGeometry y="182" width="155" height="26" as="geometry"/>
        </mxCell>
        <mxCell id="LJv96EUOWv_tqTswNUqL-68" value="- Province Name" style="text;html=1;strokeColor=none;fillColor=none;align=left;verticalAlign=top;spacingLeft=4;spacingRight=4;whiteSpace=wrap;overflow=hidden;rotatable=0;points=[[0,0.5],[1,0.5]];portConstraint=eastwest;" vertex="1" parent="LJv96EUOWv_tqTswNUqL-60">
          <mxGeometry y="208" width="155" height="26" as="geometry"/>
        </mxCell>
        <mxCell id="LJv96EUOWv_tqTswNUqL-69" value="- CountryName" style="text;html=1;strokeColor=none;fillColor=none;align=left;verticalAlign=top;spacingLeft=4;spacingRight=4;whiteSpace=wrap;overflow=hidden;rotatable=0;points=[[0,0.5],[1,0.5]];portConstraint=eastwest;" vertex="1" parent="LJv96EUOWv_tqTswNUqL-60">
          <mxGeometry y="234" width="155" height="26" as="geometry"/>
        </mxCell>
        <mxCell id="LJv96EUOWv_tqTswNUqL-70" value="" style="line;html=1;strokeWidth=1;fillColor=none;align=left;verticalAlign=middle;spacingTop=-1;spacingLeft=3;spacingRight=3;rotatable=0;labelPosition=right;points=[];portConstraint=eastwest;" vertex="1" parent="LJv96EUOWv_tqTswNUqL-60">
          <mxGeometry y="260" width="155" height="8" as="geometry"/>
        </mxCell>
        <mxCell id="LJv96EUOWv_tqTswNUqL-71" value="+getOwnAthletes()" style="text;html=1;strokeColor=none;fillColor=none;align=left;verticalAlign=top;spacingLeft=4;spacingRight=4;whiteSpace=wrap;overflow=hidden;rotatable=0;points=[[0,0.5],[1,0.5]];portConstraint=eastwest;" vertex="1" parent="LJv96EUOWv_tqTswNUqL-60">
          <mxGeometry y="268" width="155" height="24" as="geometry"/>
        </mxCell>
        <mxCell id="LJv96EUOWv_tqTswNUqL-72" value="+sendWorkoutProgram(RequestID)" style="text;html=1;strokeColor=none;fillColor=none;align=left;verticalAlign=top;spacingLeft=4;spacingRight=4;whiteSpace=wrap;overflow=hidden;rotatable=0;points=[[0,0.5],[1,0.5]];portConstraint=eastwest;" vertex="1" parent="LJv96EUOWv_tqTswNUqL-60">
          <mxGeometry y="292" width="155" height="24" as="geometry"/>
        </mxCell>
        <mxCell id="LJv96EUOWv_tqTswNUqL-73" value="+getAthletesProgram(AthleteID)" style="text;html=1;strokeColor=none;fillColor=none;align=left;verticalAlign=top;spacingLeft=4;spacingRight=4;whiteSpace=wrap;overflow=hidden;rotatable=0;points=[[0,0.5],[1,0.5]];portConstraint=eastwest;" vertex="1" parent="LJv96EUOWv_tqTswNUqL-60">
          <mxGeometry y="316" width="155" height="26" as="geometry"/>
        </mxCell>
        <mxCell id="LJv96EUOWv_tqTswNUqL-74" value="+SendNutritionProgram(RequestID)" style="text;html=1;strokeColor=none;fillColor=none;align=left;verticalAlign=top;spacingLeft=4;spacingRight=4;whiteSpace=wrap;overflow=hidden;rotatable=0;points=[[0,0.5],[1,0.5]];portConstraint=eastwest;" vertex="1" parent="LJv96EUOWv_tqTswNUqL-60">
          <mxGeometry y="342" width="155" height="26" as="geometry"/>
        </mxCell>
        <mxCell id="LJv96EUOWv_tqTswNUqL-75" value="+SeeOwnProfile()" style="text;html=1;strokeColor=none;fillColor=none;align=left;verticalAlign=top;spacingLeft=4;spacingRight=4;whiteSpace=wrap;overflow=hidden;rotatable=0;points=[[0,0.5],[1,0.5]];portConstraint=eastwest;" vertex="1" parent="LJv96EUOWv_tqTswNUqL-60">
          <mxGeometry y="368" width="155" height="26" as="geometry"/>
        </mxCell>
        <mxCell id="LJv96EUOWv_tqTswNUqL-76" value="+EditProfile(Data)" style="text;html=1;strokeColor=none;fillColor=none;align=left;verticalAlign=top;spacingLeft=4;spacingRight=4;whiteSpace=wrap;overflow=hidden;rotatable=0;points=[[0,0.5],[1,0.5]];portConstraint=eastwest;" vertex="1" parent="LJv96EUOWv_tqTswNUqL-60">
          <mxGeometry y="394" width="155" height="26" as="geometry"/>
        </mxCell>
        <mxCell id="LJv96EUOWv_tqTswNUqL-77" value="+AcceptAthlete(AthleteID)" style="text;html=1;strokeColor=none;fillColor=none;align=left;verticalAlign=top;spacingLeft=4;spacingRight=4;whiteSpace=wrap;overflow=hidden;rotatable=0;points=[[0,0.5],[1,0.5]];portConstraint=eastwest;" vertex="1" parent="LJv96EUOWv_tqTswNUqL-60">
          <mxGeometry y="420" width="155" height="26" as="geometry"/>
        </mxCell>
        <mxCell id="LJv96EUOWv_tqTswNUqL-78" value="" style="shape=folder;fontStyle=1;spacingTop=10;tabWidth=333;tabHeight=54;tabPosition=left;html=1;fontSize=18;" vertex="1" parent="1">
          <mxGeometry x="962" y="740" width="556" height="340" as="geometry"/>
        </mxCell>
        <mxCell id="LJv96EUOWv_tqTswNUqL-79" value="Programs" style="text;align=center;fontStyle=1;verticalAlign=middle;spacingLeft=3;spacingRight=3;strokeColor=none;rotatable=0;points=[[0,0.5],[1,0.5]];portConstraint=eastwest;fontSize=18;" vertex="1" parent="1">
          <mxGeometry x="962" y="740" width="328" height="50" as="geometry"/>
        </mxCell>
        <mxCell id="LJv96EUOWv_tqTswNUqL-80" value="Workout Programs" style="swimlane;html=1;fontStyle=1;align=center;verticalAlign=top;childLayout=stackLayout;horizontal=1;startSize=26;horizontalStack=0;resizeParent=1;resizeLast=0;collapsible=1;marginBottom=0;swimlaneFillColor=#ffffff;rounded=0;shadow=0;comic=0;labelBackgroundColor=none;strokeWidth=1;fillColor=none;fontFamily=Verdana;fontSize=12" vertex="1" parent="1">
          <mxGeometry x="1000" y="850" width="190" height="138" as="geometry"/>
        </mxCell>
        <mxCell id="LJv96EUOWv_tqTswNUqL-81" value="- unique&amp;nbsp;WorkoutProgram ID" style="text;html=1;strokeColor=none;fillColor=none;align=left;verticalAlign=top;spacingLeft=4;spacingRight=4;whiteSpace=wrap;overflow=hidden;rotatable=0;points=[[0,0.5],[1,0.5]];portConstraint=eastwest;" vertex="1" parent="LJv96EUOWv_tqTswNUqL-80">
          <mxGeometry y="26" width="190" height="26" as="geometry"/>
        </mxCell>
        <mxCell id="LJv96EUOWv_tqTswNUqL-82" value="- program title" style="text;html=1;strokeColor=none;fillColor=none;align=left;verticalAlign=top;spacingLeft=4;spacingRight=4;whiteSpace=wrap;overflow=hidden;rotatable=0;points=[[0,0.5],[1,0.5]];portConstraint=eastwest;" vertex="1" parent="LJv96EUOWv_tqTswNUqL-80">
          <mxGeometry y="52" width="190" height="26" as="geometry"/>
        </mxCell>
        <mxCell id="LJv96EUOWv_tqTswNUqL-83" value="- program description" style="text;html=1;strokeColor=none;fillColor=none;align=left;verticalAlign=top;spacingLeft=4;spacingRight=4;whiteSpace=wrap;overflow=hidden;rotatable=0;points=[[0,0.5],[1,0.5]];portConstraint=eastwest;" vertex="1" parent="LJv96EUOWv_tqTswNUqL-80">
          <mxGeometry y="78" width="190" height="26" as="geometry"/>
        </mxCell>
        <mxCell id="LJv96EUOWv_tqTswNUqL-84" value="" style="line;html=1;strokeWidth=1;fillColor=none;align=left;verticalAlign=middle;spacingTop=-1;spacingLeft=3;spacingRight=3;rotatable=0;labelPosition=right;points=[];portConstraint=eastwest;" vertex="1" parent="LJv96EUOWv_tqTswNUqL-80">
          <mxGeometry y="104" width="190" height="8" as="geometry"/>
        </mxCell>
        <mxCell id="LJv96EUOWv_tqTswNUqL-85" value="+requestWorkoutProgram()" style="text;html=1;strokeColor=none;fillColor=none;align=left;verticalAlign=top;spacingLeft=4;spacingRight=4;whiteSpace=wrap;overflow=hidden;rotatable=0;points=[[0,0.5],[1,0.5]];portConstraint=eastwest;" vertex="1" parent="LJv96EUOWv_tqTswNUqL-80">
          <mxGeometry y="112" width="190" height="26" as="geometry"/>
        </mxCell>
        <mxCell id="LJv96EUOWv_tqTswNUqL-86" value="Nutrition Programs" style="swimlane;html=1;fontStyle=1;align=center;verticalAlign=top;childLayout=stackLayout;horizontal=1;startSize=26;horizontalStack=0;resizeParent=1;resizeLast=0;collapsible=1;marginBottom=0;swimlaneFillColor=#ffffff;rounded=0;shadow=0;comic=0;labelBackgroundColor=none;strokeWidth=1;fillColor=none;fontFamily=Verdana;fontSize=12" vertex="1" parent="1">
          <mxGeometry x="1290" y="850" width="180" height="138" as="geometry"/>
        </mxCell>
        <mxCell id="LJv96EUOWv_tqTswNUqL-87" value="- unique NutritionProgram ID" style="text;html=1;strokeColor=none;fillColor=none;align=left;verticalAlign=top;spacingLeft=4;spacingRight=4;whiteSpace=wrap;overflow=hidden;rotatable=0;points=[[0,0.5],[1,0.5]];portConstraint=eastwest;" vertex="1" parent="LJv96EUOWv_tqTswNUqL-86">
          <mxGeometry y="26" width="180" height="26" as="geometry"/>
        </mxCell>
        <mxCell id="LJv96EUOWv_tqTswNUqL-88" value="- programTitle" style="text;html=1;strokeColor=none;fillColor=none;align=left;verticalAlign=top;spacingLeft=4;spacingRight=4;whiteSpace=wrap;overflow=hidden;rotatable=0;points=[[0,0.5],[1,0.5]];portConstraint=eastwest;" vertex="1" parent="LJv96EUOWv_tqTswNUqL-86">
          <mxGeometry y="52" width="180" height="26" as="geometry"/>
        </mxCell>
        <mxCell id="LJv96EUOWv_tqTswNUqL-89" value="- programDescription" style="text;html=1;strokeColor=none;fillColor=none;align=left;verticalAlign=top;spacingLeft=4;spacingRight=4;whiteSpace=wrap;overflow=hidden;rotatable=0;points=[[0,0.5],[1,0.5]];portConstraint=eastwest;" vertex="1" parent="LJv96EUOWv_tqTswNUqL-86">
          <mxGeometry y="78" width="180" height="26" as="geometry"/>
        </mxCell>
        <mxCell id="LJv96EUOWv_tqTswNUqL-90" value="" style="line;html=1;strokeWidth=1;fillColor=none;align=left;verticalAlign=middle;spacingTop=-1;spacingLeft=3;spacingRight=3;rotatable=0;labelPosition=right;points=[];portConstraint=eastwest;" vertex="1" parent="LJv96EUOWv_tqTswNUqL-86">
          <mxGeometry y="104" width="180" height="8" as="geometry"/>
        </mxCell>
        <mxCell id="LJv96EUOWv_tqTswNUqL-91" value="+requestNutritionProgram()" style="text;html=1;strokeColor=none;fillColor=none;align=left;verticalAlign=top;spacingLeft=4;spacingRight=4;whiteSpace=wrap;overflow=hidden;rotatable=0;points=[[0,0.5],[1,0.5]];portConstraint=eastwest;" vertex="1" parent="LJv96EUOWv_tqTswNUqL-86">
          <mxGeometry y="112" width="180" height="26" as="geometry"/>
        </mxCell>
        <mxCell id="LJv96EUOWv_tqTswNUqL-92" value="" style="shape=folder;fontStyle=1;spacingTop=10;tabWidth=287;tabHeight=53;tabPosition=left;html=1;fontSize=18;" vertex="1" parent="1">
          <mxGeometry x="1110" y="1190" width="953" height="650" as="geometry"/>
        </mxCell>
        <mxCell id="LJv96EUOWv_tqTswNUqL-93" value="Support and Learning Packs" style="text;align=center;fontStyle=1;verticalAlign=middle;spacingLeft=3;spacingRight=3;strokeColor=none;rotatable=0;points=[[0,0.5],[1,0.5]];portConstraint=eastwest;fontSize=18;" vertex="1" parent="1">
          <mxGeometry x="1133" y="1200" width="250" height="40" as="geometry"/>
        </mxCell>
        <mxCell id="LJv96EUOWv_tqTswNUqL-94" value="Support" style="swimlane;html=1;fontStyle=1;align=center;verticalAlign=top;childLayout=stackLayout;horizontal=1;startSize=26;horizontalStack=0;resizeParent=1;resizeLast=0;collapsible=1;marginBottom=0;swimlaneFillColor=#ffffff;rounded=0;shadow=0;comic=0;labelBackgroundColor=none;strokeWidth=1;fillColor=none;fontFamily=Verdana;fontSize=12" vertex="1" parent="1">
          <mxGeometry x="1145" y="1270" width="238" height="190" as="geometry"/>
        </mxCell>
        <mxCell id="LJv96EUOWv_tqTswNUqL-95" value="- Ticket Owner : Athlete or Coach" style="text;html=1;strokeColor=none;fillColor=none;align=left;verticalAlign=top;spacingLeft=4;spacingRight=4;whiteSpace=wrap;overflow=hidden;rotatable=0;points=[[0,0.5],[1,0.5]];portConstraint=eastwest;" vertex="1" parent="LJv96EUOWv_tqTswNUqL-94">
          <mxGeometry y="26" width="238" height="26" as="geometry"/>
        </mxCell>
        <mxCell id="LJv96EUOWv_tqTswNUqL-96" value="- Ticket Subject" style="text;html=1;strokeColor=none;fillColor=none;align=left;verticalAlign=top;spacingLeft=4;spacingRight=4;whiteSpace=wrap;overflow=hidden;rotatable=0;points=[[0,0.5],[1,0.5]];portConstraint=eastwest;" vertex="1" parent="LJv96EUOWv_tqTswNUqL-94">
          <mxGeometry y="52" width="238" height="26" as="geometry"/>
        </mxCell>
        <mxCell id="LJv96EUOWv_tqTswNUqL-97" value="- Ticket Description" style="text;html=1;strokeColor=none;fillColor=none;align=left;verticalAlign=top;spacingLeft=4;spacingRight=4;whiteSpace=wrap;overflow=hidden;rotatable=0;points=[[0,0.5],[1,0.5]];portConstraint=eastwest;" vertex="1" parent="LJv96EUOWv_tqTswNUqL-94">
          <mxGeometry y="78" width="238" height="26" as="geometry"/>
        </mxCell>
        <mxCell id="LJv96EUOWv_tqTswNUqL-98" value="" style="line;html=1;strokeWidth=1;fillColor=none;align=left;verticalAlign=middle;spacingTop=-1;spacingLeft=3;spacingRight=3;rotatable=0;labelPosition=right;points=[];portConstraint=eastwest;" vertex="1" parent="LJv96EUOWv_tqTswNUqL-94">
          <mxGeometry y="104" width="238" height="8" as="geometry"/>
        </mxCell>
        <mxCell id="LJv96EUOWv_tqTswNUqL-99" value="+getTickets()" style="text;html=1;strokeColor=none;fillColor=none;align=left;verticalAlign=top;spacingLeft=4;spacingRight=4;whiteSpace=wrap;overflow=hidden;rotatable=0;points=[[0,0.5],[1,0.5]];portConstraint=eastwest;" vertex="1" parent="LJv96EUOWv_tqTswNUqL-94">
          <mxGeometry y="112" width="238" height="26" as="geometry"/>
        </mxCell>
        <mxCell id="LJv96EUOWv_tqTswNUqL-100" value="+sendTicketToSupport()" style="text;html=1;strokeColor=none;fillColor=none;align=left;verticalAlign=top;spacingLeft=4;spacingRight=4;whiteSpace=wrap;overflow=hidden;rotatable=0;points=[[0,0.5],[1,0.5]];portConstraint=eastwest;" vertex="1" parent="LJv96EUOWv_tqTswNUqL-94">
          <mxGeometry y="138" width="238" height="26" as="geometry"/>
        </mxCell>
        <mxCell id="LJv96EUOWv_tqTswNUqL-101" value="+deleteTicket()" style="text;html=1;strokeColor=none;fillColor=none;align=left;verticalAlign=top;spacingLeft=4;spacingRight=4;whiteSpace=wrap;overflow=hidden;rotatable=0;points=[[0,0.5],[1,0.5]];portConstraint=eastwest;" vertex="1" parent="LJv96EUOWv_tqTswNUqL-94">
          <mxGeometry y="164" width="238" height="26" as="geometry"/>
        </mxCell>
        <mxCell id="LJv96EUOWv_tqTswNUqL-102" value="Admin" style="swimlane;html=1;fontStyle=1;align=center;verticalAlign=top;childLayout=stackLayout;horizontal=1;startSize=26;horizontalStack=0;resizeParent=1;resizeLast=0;collapsible=1;marginBottom=0;swimlaneFillColor=#ffffff;rounded=0;shadow=0;comic=0;labelBackgroundColor=none;strokeWidth=1;fillColor=none;fontFamily=Verdana;fontSize=12" vertex="1" parent="1">
          <mxGeometry x="1863" y="1270" width="160" height="274" as="geometry"/>
        </mxCell>
        <mxCell id="LJv96EUOWv_tqTswNUqL-103" value="- unique&amp;nbsp;Admin ID" style="text;html=1;strokeColor=none;fillColor=none;align=left;verticalAlign=top;spacingLeft=4;spacingRight=4;whiteSpace=wrap;overflow=hidden;rotatable=0;points=[[0,0.5],[1,0.5]];portConstraint=eastwest;" vertex="1" parent="LJv96EUOWv_tqTswNUqL-102">
          <mxGeometry y="26" width="160" height="26" as="geometry"/>
        </mxCell>
        <mxCell id="LJv96EUOWv_tqTswNUqL-104" value="- Admin Name" style="text;html=1;strokeColor=none;fillColor=none;align=left;verticalAlign=top;spacingLeft=4;spacingRight=4;whiteSpace=wrap;overflow=hidden;rotatable=0;points=[[0,0.5],[1,0.5]];portConstraint=eastwest;" vertex="1" parent="LJv96EUOWv_tqTswNUqL-102">
          <mxGeometry y="52" width="160" height="26" as="geometry"/>
        </mxCell>
        <mxCell id="LJv96EUOWv_tqTswNUqL-105" value="- Admin Role" style="text;html=1;strokeColor=none;fillColor=none;align=left;verticalAlign=top;spacingLeft=4;spacingRight=4;whiteSpace=wrap;overflow=hidden;rotatable=0;points=[[0,0.5],[1,0.5]];portConstraint=eastwest;" vertex="1" parent="LJv96EUOWv_tqTswNUqL-102">
          <mxGeometry y="78" width="160" height="26" as="geometry"/>
        </mxCell>
        <mxCell id="LJv96EUOWv_tqTswNUqL-106" value="" style="line;html=1;strokeWidth=1;fillColor=none;align=left;verticalAlign=middle;spacingTop=-1;spacingLeft=3;spacingRight=3;rotatable=0;labelPosition=right;points=[];portConstraint=eastwest;" vertex="1" parent="LJv96EUOWv_tqTswNUqL-102">
          <mxGeometry y="104" width="160" height="8" as="geometry"/>
        </mxCell>
        <mxCell id="LJv96EUOWv_tqTswNUqL-107" value="+ getTickets()" style="text;html=1;strokeColor=none;fillColor=none;align=left;verticalAlign=top;spacingLeft=4;spacingRight=4;whiteSpace=wrap;overflow=hidden;rotatable=0;points=[[0,0.5],[1,0.5]];portConstraint=eastwest;" vertex="1" parent="LJv96EUOWv_tqTswNUqL-102">
          <mxGeometry y="112" width="160" height="26" as="geometry"/>
        </mxCell>
        <mxCell id="LJv96EUOWv_tqTswNUqL-108" value="+ sendResponseToTicket()" style="text;html=1;strokeColor=none;fillColor=none;align=left;verticalAlign=top;spacingLeft=4;spacingRight=4;whiteSpace=wrap;overflow=hidden;rotatable=0;points=[[0,0.5],[1,0.5]];portConstraint=eastwest;" vertex="1" parent="LJv96EUOWv_tqTswNUqL-102">
          <mxGeometry y="138" width="160" height="28" as="geometry"/>
        </mxCell>
        <mxCell id="LJv96EUOWv_tqTswNUqL-109" value="+ getAthlets()" style="text;html=1;strokeColor=none;fillColor=none;align=left;verticalAlign=top;spacingLeft=4;spacingRight=4;whiteSpace=wrap;overflow=hidden;rotatable=0;points=[[0,0.5],[1,0.5]];portConstraint=eastwest;" vertex="1" parent="LJv96EUOWv_tqTswNUqL-102">
          <mxGeometry y="166" width="160" height="28" as="geometry"/>
        </mxCell>
        <mxCell id="LJv96EUOWv_tqTswNUqL-110" value="+ getCoaches()" style="text;html=1;strokeColor=none;fillColor=none;align=left;verticalAlign=top;spacingLeft=4;spacingRight=4;whiteSpace=wrap;overflow=hidden;rotatable=0;points=[[0,0.5],[1,0.5]];portConstraint=eastwest;" vertex="1" parent="LJv96EUOWv_tqTswNUqL-102">
          <mxGeometry y="194" width="160" height="28" as="geometry"/>
        </mxCell>
        <mxCell id="LJv96EUOWv_tqTswNUqL-111" value="Packages" style="swimlane;html=1;fontStyle=1;align=center;verticalAlign=top;childLayout=stackLayout;horizontal=1;startSize=26;horizontalStack=0;resizeParent=1;resizeLast=0;collapsible=1;marginBottom=0;swimlaneFillColor=#ffffff;rounded=0;shadow=0;comic=0;labelBackgroundColor=none;strokeWidth=1;fillColor=none;fontFamily=Verdana;fontSize=12" vertex="1" parent="1">
          <mxGeometry x="1506.5" y="1544" width="160" height="242" as="geometry"/>
        </mxCell>
        <mxCell id="LJv96EUOWv_tqTswNUqL-112" value="- unique Package ID" style="text;html=1;strokeColor=none;fillColor=none;align=left;verticalAlign=top;spacingLeft=4;spacingRight=4;whiteSpace=wrap;overflow=hidden;rotatable=0;points=[[0,0.5],[1,0.5]];portConstraint=eastwest;" vertex="1" parent="LJv96EUOWv_tqTswNUqL-111">
          <mxGeometry y="26" width="160" height="26" as="geometry"/>
        </mxCell>
        <mxCell id="LJv96EUOWv_tqTswNUqL-113" value="- package name" style="text;html=1;strokeColor=none;fillColor=none;align=left;verticalAlign=top;spacingLeft=4;spacingRight=4;whiteSpace=wrap;overflow=hidden;rotatable=0;points=[[0,0.5],[1,0.5]];portConstraint=eastwest;" vertex="1" parent="LJv96EUOWv_tqTswNUqL-111">
          <mxGeometry y="52" width="160" height="26" as="geometry"/>
        </mxCell>
        <mxCell id="LJv96EUOWv_tqTswNUqL-114" value="- package cost" style="text;html=1;strokeColor=none;fillColor=none;align=left;verticalAlign=top;spacingLeft=4;spacingRight=4;whiteSpace=wrap;overflow=hidden;rotatable=0;points=[[0,0.5],[1,0.5]];portConstraint=eastwest;" vertex="1" parent="LJv96EUOWv_tqTswNUqL-111">
          <mxGeometry y="78" width="160" height="26" as="geometry"/>
        </mxCell>
        <mxCell id="LJv96EUOWv_tqTswNUqL-115" value="- package description" style="text;html=1;strokeColor=none;fillColor=none;align=left;verticalAlign=top;spacingLeft=4;spacingRight=4;whiteSpace=wrap;overflow=hidden;rotatable=0;points=[[0,0.5],[1,0.5]];portConstraint=eastwest;" vertex="1" parent="LJv96EUOWv_tqTswNUqL-111">
          <mxGeometry y="104" width="160" height="26" as="geometry"/>
        </mxCell>
        <mxCell id="LJv96EUOWv_tqTswNUqL-116" value="" style="line;html=1;strokeWidth=1;fillColor=none;align=left;verticalAlign=middle;spacingTop=-1;spacingLeft=3;spacingRight=3;rotatable=0;labelPosition=right;points=[];portConstraint=eastwest;" vertex="1" parent="LJv96EUOWv_tqTswNUqL-111">
          <mxGeometry y="130" width="160" height="8" as="geometry"/>
        </mxCell>
        <mxCell id="LJv96EUOWv_tqTswNUqL-117" value="+ showAllPackages()" style="text;html=1;strokeColor=none;fillColor=none;align=left;verticalAlign=top;spacingLeft=4;spacingRight=4;whiteSpace=wrap;overflow=hidden;rotatable=0;points=[[0,0.5],[1,0.5]];portConstraint=eastwest;" vertex="1" parent="LJv96EUOWv_tqTswNUqL-111">
          <mxGeometry y="138" width="160" height="26" as="geometry"/>
        </mxCell>
        <mxCell id="LJv96EUOWv_tqTswNUqL-118" value="+ deletePackage()" style="text;html=1;strokeColor=none;fillColor=none;align=left;verticalAlign=top;spacingLeft=4;spacingRight=4;whiteSpace=wrap;overflow=hidden;rotatable=0;points=[[0,0.5],[1,0.5]];portConstraint=eastwest;" vertex="1" parent="LJv96EUOWv_tqTswNUqL-111">
          <mxGeometry y="164" width="160" height="26" as="geometry"/>
        </mxCell>
        <mxCell id="LJv96EUOWv_tqTswNUqL-119" value="+ addPackage()" style="text;html=1;strokeColor=none;fillColor=none;align=left;verticalAlign=top;spacingLeft=4;spacingRight=4;whiteSpace=wrap;overflow=hidden;rotatable=0;points=[[0,0.5],[1,0.5]];portConstraint=eastwest;" vertex="1" parent="LJv96EUOWv_tqTswNUqL-111">
          <mxGeometry y="190" width="160" height="26" as="geometry"/>
        </mxCell>
        <mxCell id="LJv96EUOWv_tqTswNUqL-120" value="+ requestPackages()" style="text;html=1;strokeColor=none;fillColor=none;align=left;verticalAlign=top;spacingLeft=4;spacingRight=4;whiteSpace=wrap;overflow=hidden;rotatable=0;points=[[0,0.5],[1,0.5]];portConstraint=eastwest;" vertex="1" parent="LJv96EUOWv_tqTswNUqL-111">
          <mxGeometry y="216" width="160" height="26" as="geometry"/>
        </mxCell>
        <mxCell id="LJv96EUOWv_tqTswNUqL-131" value="" style="shape=folder;fontStyle=1;spacingTop=10;tabWidth=290;tabHeight=75;tabPosition=left;html=1;fontSize=18;" vertex="1" parent="1">
          <mxGeometry x="180" y="1544" width="580" height="530" as="geometry"/>
        </mxCell>
        <mxCell id="LJv96EUOWv_tqTswNUqL-121" value="Contract" style="swimlane;html=1;fontStyle=1;align=center;verticalAlign=top;childLayout=stackLayout;horizontal=1;startSize=26;horizontalStack=0;resizeParent=1;resizeLast=0;collapsible=1;marginBottom=0;swimlaneFillColor=#ffffff;rounded=0;shadow=0;comic=0;labelBackgroundColor=none;strokeWidth=1;fillColor=none;fontFamily=Verdana;fontSize=12" vertex="1" parent="1">
          <mxGeometry x="222.5" y="1654" width="160" height="230" as="geometry"/>
        </mxCell>
        <mxCell id="LJv96EUOWv_tqTswNUqL-122" value="- unique&amp;nbsp;Contract ID" style="text;html=1;strokeColor=none;fillColor=none;align=left;verticalAlign=top;spacingLeft=4;spacingRight=4;whiteSpace=wrap;overflow=hidden;rotatable=0;points=[[0,0.5],[1,0.5]];portConstraint=eastwest;" vertex="1" parent="LJv96EUOWv_tqTswNUqL-121">
          <mxGeometry y="26" width="160" height="26" as="geometry"/>
        </mxCell>
        <mxCell id="LJv96EUOWv_tqTswNUqL-123" value="- Athlete ID" style="text;html=1;strokeColor=none;fillColor=none;align=left;verticalAlign=top;spacingLeft=4;spacingRight=4;whiteSpace=wrap;overflow=hidden;rotatable=0;points=[[0,0.5],[1,0.5]];portConstraint=eastwest;" vertex="1" parent="LJv96EUOWv_tqTswNUqL-121">
          <mxGeometry y="52" width="160" height="26" as="geometry"/>
        </mxCell>
        <mxCell id="LJv96EUOWv_tqTswNUqL-124" value="- Athlete Name" style="text;html=1;strokeColor=none;fillColor=none;align=left;verticalAlign=top;spacingLeft=4;spacingRight=4;whiteSpace=wrap;overflow=hidden;rotatable=0;points=[[0,0.5],[1,0.5]];portConstraint=eastwest;" vertex="1" parent="LJv96EUOWv_tqTswNUqL-121">
          <mxGeometry y="78" width="160" height="26" as="geometry"/>
        </mxCell>
        <mxCell id="LJv96EUOWv_tqTswNUqL-125" value="- Coach ID" style="text;html=1;strokeColor=none;fillColor=none;align=left;verticalAlign=top;spacingLeft=4;spacingRight=4;whiteSpace=wrap;overflow=hidden;rotatable=0;points=[[0,0.5],[1,0.5]];portConstraint=eastwest;" vertex="1" parent="LJv96EUOWv_tqTswNUqL-121">
          <mxGeometry y="104" width="160" height="26" as="geometry"/>
        </mxCell>
        <mxCell id="LJv96EUOWv_tqTswNUqL-126" value="- Coach Name" style="text;html=1;strokeColor=none;fillColor=none;align=left;verticalAlign=top;spacingLeft=4;spacingRight=4;whiteSpace=wrap;overflow=hidden;rotatable=0;points=[[0,0.5],[1,0.5]];portConstraint=eastwest;" vertex="1" parent="LJv96EUOWv_tqTswNUqL-121">
          <mxGeometry y="130" width="160" height="26" as="geometry"/>
        </mxCell>
        <mxCell id="LJv96EUOWv_tqTswNUqL-127" value="" style="line;html=1;strokeWidth=1;fillColor=none;align=left;verticalAlign=middle;spacingTop=-1;spacingLeft=3;spacingRight=3;rotatable=0;labelPosition=right;points=[];portConstraint=eastwest;" vertex="1" parent="LJv96EUOWv_tqTswNUqL-121">
          <mxGeometry y="156" width="160" height="8" as="geometry"/>
        </mxCell>
        <mxCell id="LJv96EUOWv_tqTswNUqL-128" value="+ GetContractDetails()" style="text;html=1;strokeColor=none;fillColor=none;align=left;verticalAlign=top;spacingLeft=4;spacingRight=4;whiteSpace=wrap;overflow=hidden;rotatable=0;points=[[0,0.5],[1,0.5]];portConstraint=eastwest;" vertex="1" parent="LJv96EUOWv_tqTswNUqL-121">
          <mxGeometry y="164" width="160" height="26" as="geometry"/>
        </mxCell>
        <mxCell id="LJv96EUOWv_tqTswNUqL-129" value="+ Chat()" style="text;html=1;strokeColor=none;fillColor=none;align=left;verticalAlign=top;spacingLeft=4;spacingRight=4;whiteSpace=wrap;overflow=hidden;rotatable=0;points=[[0,0.5],[1,0.5]];portConstraint=eastwest;" vertex="1" parent="LJv96EUOWv_tqTswNUqL-121">
          <mxGeometry y="190" width="160" height="28" as="geometry"/>
        </mxCell>
        <mxCell id="LJv96EUOWv_tqTswNUqL-133" value="Packages" style="swimlane;html=1;fontStyle=1;align=center;verticalAlign=top;childLayout=stackLayout;horizontal=1;startSize=26;horizontalStack=0;resizeParent=1;resizeLast=0;collapsible=1;marginBottom=0;swimlaneFillColor=#ffffff;rounded=0;shadow=0;comic=0;labelBackgroundColor=none;strokeWidth=1;fillColor=none;fontFamily=Verdana;fontSize=12" vertex="1" parent="1">
          <mxGeometry x="522.5" y="1654" width="160" height="242" as="geometry"/>
        </mxCell>
        <mxCell id="LJv96EUOWv_tqTswNUqL-134" value="- unique Package ID" style="text;html=1;strokeColor=none;fillColor=none;align=left;verticalAlign=top;spacingLeft=4;spacingRight=4;whiteSpace=wrap;overflow=hidden;rotatable=0;points=[[0,0.5],[1,0.5]];portConstraint=eastwest;" vertex="1" parent="LJv96EUOWv_tqTswNUqL-133">
          <mxGeometry y="26" width="160" height="26" as="geometry"/>
        </mxCell>
        <mxCell id="LJv96EUOWv_tqTswNUqL-135" value="- package name" style="text;html=1;strokeColor=none;fillColor=none;align=left;verticalAlign=top;spacingLeft=4;spacingRight=4;whiteSpace=wrap;overflow=hidden;rotatable=0;points=[[0,0.5],[1,0.5]];portConstraint=eastwest;" vertex="1" parent="LJv96EUOWv_tqTswNUqL-133">
          <mxGeometry y="52" width="160" height="26" as="geometry"/>
        </mxCell>
        <mxCell id="LJv96EUOWv_tqTswNUqL-136" value="- package cost" style="text;html=1;strokeColor=none;fillColor=none;align=left;verticalAlign=top;spacingLeft=4;spacingRight=4;whiteSpace=wrap;overflow=hidden;rotatable=0;points=[[0,0.5],[1,0.5]];portConstraint=eastwest;" vertex="1" parent="LJv96EUOWv_tqTswNUqL-133">
          <mxGeometry y="78" width="160" height="26" as="geometry"/>
        </mxCell>
        <mxCell id="LJv96EUOWv_tqTswNUqL-137" value="- package description" style="text;html=1;strokeColor=none;fillColor=none;align=left;verticalAlign=top;spacingLeft=4;spacingRight=4;whiteSpace=wrap;overflow=hidden;rotatable=0;points=[[0,0.5],[1,0.5]];portConstraint=eastwest;" vertex="1" parent="LJv96EUOWv_tqTswNUqL-133">
          <mxGeometry y="104" width="160" height="26" as="geometry"/>
        </mxCell>
        <mxCell id="LJv96EUOWv_tqTswNUqL-138" value="" style="line;html=1;strokeWidth=1;fillColor=none;align=left;verticalAlign=middle;spacingTop=-1;spacingLeft=3;spacingRight=3;rotatable=0;labelPosition=right;points=[];portConstraint=eastwest;" vertex="1" parent="LJv96EUOWv_tqTswNUqL-133">
          <mxGeometry y="130" width="160" height="8" as="geometry"/>
        </mxCell>
        <mxCell id="LJv96EUOWv_tqTswNUqL-139" value="+ showAllPackages()" style="text;html=1;strokeColor=none;fillColor=none;align=left;verticalAlign=top;spacingLeft=4;spacingRight=4;whiteSpace=wrap;overflow=hidden;rotatable=0;points=[[0,0.5],[1,0.5]];portConstraint=eastwest;" vertex="1" parent="LJv96EUOWv_tqTswNUqL-133">
          <mxGeometry y="138" width="160" height="26" as="geometry"/>
        </mxCell>
        <mxCell id="LJv96EUOWv_tqTswNUqL-140" value="+ deletePackage()" style="text;html=1;strokeColor=none;fillColor=none;align=left;verticalAlign=top;spacingLeft=4;spacingRight=4;whiteSpace=wrap;overflow=hidden;rotatable=0;points=[[0,0.5],[1,0.5]];portConstraint=eastwest;" vertex="1" parent="LJv96EUOWv_tqTswNUqL-133">
          <mxGeometry y="164" width="160" height="26" as="geometry"/>
        </mxCell>
        <mxCell id="LJv96EUOWv_tqTswNUqL-141" value="+ addPackage()" style="text;html=1;strokeColor=none;fillColor=none;align=left;verticalAlign=top;spacingLeft=4;spacingRight=4;whiteSpace=wrap;overflow=hidden;rotatable=0;points=[[0,0.5],[1,0.5]];portConstraint=eastwest;" vertex="1" parent="LJv96EUOWv_tqTswNUqL-133">
          <mxGeometry y="190" width="160" height="26" as="geometry"/>
        </mxCell>
        <mxCell id="LJv96EUOWv_tqTswNUqL-142" value="+ requestPackages()" style="text;html=1;strokeColor=none;fillColor=none;align=left;verticalAlign=top;spacingLeft=4;spacingRight=4;whiteSpace=wrap;overflow=hidden;rotatable=0;points=[[0,0.5],[1,0.5]];portConstraint=eastwest;" vertex="1" parent="LJv96EUOWv_tqTswNUqL-133">
          <mxGeometry y="216" width="160" height="26" as="geometry"/>
        </mxCell>
        <mxCell id="LJv96EUOWv_tqTswNUqL-143" value="Billing and Contract" style="text;align=center;fontStyle=1;verticalAlign=middle;spacingLeft=3;spacingRight=3;strokeColor=none;rotatable=0;points=[[0,0.5],[1,0.5]];portConstraint=eastwest;fontSize=23;" vertex="1" parent="1">
          <mxGeometry x="182.5" y="1544" width="280" height="70" as="geometry"/>
        </mxCell>
        <mxCell id="LJv96EUOWv_tqTswNUqL-144" value="" style="shape=folder;fontStyle=1;spacingTop=10;tabWidth=364;tabHeight=83;tabPosition=left;html=1;fontSize=23;" vertex="1" parent="1">
          <mxGeometry x="490" y="2380" width="1270" height="690" as="geometry"/>
        </mxCell>
        <mxCell id="LJv96EUOWv_tqTswNUqL-145" value="Data Management Layer" style="text;align=center;fontStyle=1;verticalAlign=middle;spacingLeft=3;spacingRight=3;strokeColor=none;rotatable=0;points=[[0,0.5],[1,0.5]];portConstraint=eastwest;fontSize=23;" vertex="1" parent="1">
          <mxGeometry x="490" y="2380" width="360" height="80" as="geometry"/>
        </mxCell>
      </root>
    </mxGraphModel>
  </diagram>
</mxfile>
